<svg width="305" height="104" viewBox="0 0 305 104" fill="none" xmlns="http://www.w3.org/2000/svg">
<path d="M0 91.0328L28.1067 12.3129H45.647L73.648 91.0328H58.2739L51.9868 72.2245H21.4499L15.0043 91.0328H0ZM25.3594 60.76H48.1829L44.4847 49.6652C43.3224 46.0374 42.1248 42.2511 40.8921 38.3063C39.6946 34.3615 38.3561 29.906 36.8768 24.9398C35.3975 29.906 34.0415 34.3615 32.8088 38.3063C31.576 42.2511 30.3609 46.0374 29.1634 49.6652L25.3594 60.76Z" fill="#155DFC"/>
<path d="M108.412 35.242V45.967H97.0527V91.0328H83.6861V45.967H73.648V35.242H83.6861V27.1059C83.6861 22.3158 85.1302 18.6527 88.0184 16.1168C90.9418 13.5808 95.1507 12.3129 100.645 12.3129H108.412V23.0378H103.287C100.997 23.0378 99.3773 23.5133 98.4263 24.4643C97.5106 25.4152 97.0527 27.0354 97.0527 29.3248V35.242H108.412Z" fill="#155DFC"/>
<path d="M141.379 35.242V45.967H130.02V91.0328H116.653V45.967H106.615V35.242H116.653V27.1059C116.653 22.3158 118.097 18.6527 120.986 16.1168C123.909 13.5808 128.118 12.3129 133.613 12.3129H141.379V23.0378H136.254C133.965 23.0378 132.345 23.5133 131.394 24.4643C130.478 25.4152 130.02 27.0354 130.02 29.3248V35.242H141.379Z" fill="#155DFC"/>
<path d="M149.462 91.0328V35.242H162.776V91.0328H149.462ZM156.119 26.9474C153.83 26.9474 151.928 26.2253 150.413 24.7813C148.899 23.302 148.141 21.4881 148.141 19.3395C148.141 17.191 148.899 15.3947 150.413 13.9507C151.928 12.5066 153.83 11.7845 156.119 11.7845C158.373 11.7845 160.258 12.5066 161.772 13.9507C163.287 15.3947 164.044 17.191 164.044 19.3395C164.044 21.4881 163.287 23.302 161.772 24.7813C160.258 26.2253 158.373 26.9474 156.119 26.9474Z" fill="#155DFC"/>
<path d="M204.883 35.242V45.967H193.524V75.0246C193.524 77.0323 193.929 78.4235 194.739 79.1984C195.549 79.938 197.029 80.3079 199.177 80.3079H204.883V91.0328H196.853C191.182 91.0328 186.973 89.8881 184.226 87.5987C181.514 85.3093 180.158 81.7695 180.158 76.9794V45.967H170.437V35.242H180.158V20.0264H193.524V35.242H204.883Z" fill="#155DFC"/>
<path d="M237.375 92.3008C231.88 92.3008 227.073 91.0856 222.952 88.6553C218.831 86.1898 215.608 82.7734 213.283 78.4059C210.994 74.0384 209.849 68.9666 209.849 63.1902C209.849 57.4139 210.994 52.342 213.283 47.9746C215.608 43.5719 218.831 40.1378 222.952 37.6723C227.073 35.2068 231.88 33.9741 237.375 33.9741C242.834 33.9741 247.624 35.2068 251.745 37.6723C255.901 40.1378 259.124 43.5719 261.414 47.9746C263.738 52.342 264.9 57.4139 264.9 63.1902C264.9 68.9666 263.738 74.0384 261.414 78.4059C259.124 82.7734 255.901 86.1898 251.745 88.6553C247.624 91.0856 242.834 92.3008 237.375 92.3008ZM237.375 81.1532C241.637 81.1532 245.036 79.5506 247.571 76.3454C250.107 73.1403 251.375 68.7552 251.375 63.1902C251.375 57.6252 250.107 53.2226 247.571 49.9822C245.036 46.7418 241.637 45.1216 237.375 45.1216C233.078 45.1216 229.661 46.7418 227.125 49.9822C224.59 53.1873 223.322 57.59 223.322 63.1902C223.322 68.7552 224.59 73.1403 227.125 76.3454C229.661 79.5506 233.078 81.1532 237.375 81.1532Z" fill="#155DFC"/>
<path d="M274.146 91.0328V35.242H286.984V44.4877H287.143C288.164 41.3177 289.767 38.9051 291.95 37.2496C294.169 35.559 297.075 34.7137 300.668 34.7137C301.584 34.7137 302.394 34.7489 303.098 34.8194C303.838 34.8546 304.472 34.8898 305 34.925V46.7594C304.507 46.689 303.662 46.6009 302.464 46.4953C301.267 46.3896 300.016 46.3368 298.713 46.3368C295.543 46.3368 292.866 47.4286 290.683 49.6124C288.534 51.7961 287.46 55.0717 287.46 59.4392V91.0328H274.146Z" fill="#155DFC"/>
</svg>
