<svg width="128" height="128" viewBox="0 0 128 128" fill="none" xmlns="http://www.w3.org/2000/svg">
<path d="M32 1H96C101.617 1 105.77 1.00115 109.055 1.26953C112.328 1.53697 114.651 2.06517 116.626 3.07129C120.201 4.89284 123.107 7.79917 124.929 11.374C125.935 13.3486 126.463 15.6722 126.73 18.9453C126.999 22.2302 127 26.383 127 32V96C127 101.617 126.999 105.77 126.73 109.055C126.463 112.328 125.935 114.651 124.929 116.626C123.107 120.201 120.201 123.107 116.626 124.929C114.651 125.935 112.328 126.463 109.055 126.73C105.77 126.999 101.617 127 96 127H32C26.383 127 22.2302 126.999 18.9453 126.73C15.6722 126.463 13.3486 125.935 11.374 124.929C7.79917 123.107 4.89284 120.201 3.07129 116.626C2.06517 114.651 1.53697 112.328 1.26953 109.055C1.00115 105.77 1 101.617 1 96V32C1 26.383 1.00115 22.2302 1.26953 18.9453C1.53697 15.6722 2.06517 13.3486 3.07129 11.374C4.89284 7.79917 7.79917 4.89284 11.374 3.07129C13.3486 2.06517 15.6722 1.53697 18.9453 1.26953C22.2302 1.00115 26.383 1 32 1Z" fill="white"/>
<path d="M32 1H96C101.617 1 105.77 1.00115 109.055 1.26953C112.328 1.53697 114.651 2.06517 116.626 3.07129C120.201 4.89284 123.107 7.79917 124.929 11.374C125.935 13.3486 126.463 15.6722 126.73 18.9453C126.999 22.2302 127 26.383 127 32V96C127 101.617 126.999 105.77 126.73 109.055C126.463 112.328 125.935 114.651 124.929 116.626C123.107 120.201 120.201 123.107 116.626 124.929C114.651 125.935 112.328 126.463 109.055 126.73C105.77 126.999 101.617 127 96 127H32C26.383 127 22.2302 126.999 18.9453 126.73C15.6722 126.463 13.3486 125.935 11.374 124.929C7.79917 123.107 4.89284 120.201 3.07129 116.626C2.06517 114.651 1.53697 112.328 1.26953 109.055C1.00115 105.77 1 101.617 1 96V32C1 26.383 1.00115 22.2302 1.26953 18.9453C1.53697 15.6722 2.06517 13.3486 3.07129 11.374C4.89284 7.79917 7.79917 4.89284 11.374 3.07129C13.3486 2.06517 15.6722 1.53697 18.9453 1.26953C22.2302 1.00115 26.383 1 32 1Z" fill="url(#paint0_linear_2333_3458)"/>
<path d="M32 1H96C101.617 1 105.77 1.00115 109.055 1.26953C112.328 1.53697 114.651 2.06517 116.626 3.07129C120.201 4.89284 123.107 7.79917 124.929 11.374C125.935 13.3486 126.463 15.6722 126.73 18.9453C126.999 22.2302 127 26.383 127 32V96C127 101.617 126.999 105.77 126.73 109.055C126.463 112.328 125.935 114.651 124.929 116.626C123.107 120.201 120.201 123.107 116.626 124.929C114.651 125.935 112.328 126.463 109.055 126.73C105.77 126.999 101.617 127 96 127H32C26.383 127 22.2302 126.999 18.9453 126.73C15.6722 126.463 13.3486 125.935 11.374 124.929C7.79917 123.107 4.89284 120.201 3.07129 116.626C2.06517 114.651 1.53697 112.328 1.26953 109.055C1.00115 105.77 1 101.617 1 96V32C1 26.383 1.00115 22.2302 1.26953 18.9453C1.53697 15.6722 2.06517 13.3486 3.07129 11.374C4.89284 7.79917 7.79917 4.89284 11.374 3.07129C13.3486 2.06517 15.6722 1.53697 18.9453 1.26953C22.2302 1.00115 26.383 1 32 1Z" stroke="#ECEDF0" stroke-width="2"/>
<path d="M47.8409 94.8184H34L55.0895 33.7275H71.7344L92.794 94.8184H78.9531L63.6506 47.6878H63.1733L47.8409 94.8184ZM46.9759 70.8057H79.669V80.888H46.9759V70.8057Z" fill="#155DFC"/>
<defs>
<linearGradient id="paint0_linear_2333_3458" x1="64" y1="0" x2="64" y2="128" gradientUnits="userSpaceOnUse">
<stop stop-color="white"/>
<stop offset="1" stop-color="#D0D5DD"/>
</linearGradient>
</defs>
</svg>
